<svg xmlns="http://www.w3.org/2000/svg" width="226" height="222" viewBox="0 0 226 222" version="1.1"><path d="M 37 111 L 37 150 54.500 150 L 72 150 72 144.500 L 72 139 60.500 139 L 49 139 49 105.500 L 49 72 43 72 L 37 72 37 111 M 78.343 75.566 C 76.265 77.644, 75.897 78.736, 76.411 81.303 C 77.210 85.302, 78.698 86.790, 82.697 87.589 C 89.178 88.886, 93.751 79.751, 89 75 C 86.175 72.175, 81.484 72.425, 78.343 75.566 M 160 102.232 C 146.611 109.318, 142.691 130.728, 152.441 143.511 C 156.726 149.130, 162.193 151.469, 171 151.452 C 176.786 151.440, 179.592 150.906, 183.277 149.116 C 187.638 146.998, 193.012 141.626, 192.992 139.406 C 192.987 138.908, 191.125 137.491, 188.854 136.258 L 184.725 134.016 180.860 137.508 C 177.473 140.567, 176.341 141, 171.720 141 C 168.558 141, 165.552 140.375, 164.217 139.439 C 161.587 137.598, 159 132.941, 159 130.050 C 159 128.061, 159.524 128, 176.639 128 L 194.278 128 193.725 121.905 C 193.003 113.946, 189.547 107.331, 184.115 103.513 C 180.425 100.920, 178.786 100.462, 172.169 100.179 C 165.627 99.899, 163.839 100.201, 160 102.232 M 78 125.500 L 78 150 83.500 150 L 89 150 89 125.500 L 89 101 83.500 101 L 78 101 78 125.500 M 95.343 102.452 C 96.968 106.687, 119.580 152.994, 120.024 152.997 C 120.558 153, 145 102.708, 145 101.606 C 145 101.273, 142.178 101, 138.729 101 L 132.458 101 126.555 114.500 C 123.309 121.925, 120.392 128, 120.074 128 C 119.755 128, 116.805 121.925, 113.518 114.500 L 107.542 101 101.164 101 C 95.999 101, 94.892 101.276, 95.343 102.452 M 166.378 110.437 C 163.172 111.832, 160 115.456, 160 117.723 C 160 118.682, 162.740 119, 171 119 C 182.806 119, 183.527 118.625, 180.369 114.117 C 178.776 111.842, 173.337 108.961, 170.782 109.039 C 170.077 109.061, 168.095 109.690, 166.378 110.437" stroke="none" fill="#f5f5f5" fill-rule="evenodd"/><path d="M -0 111.004 L -0 222.009 113.250 221.754 L 226.500 221.500 226.754 110.750 L 227.009 -0 113.504 -0 L 0 0 -0 111.004 M 0.483 111.500 C 0.483 172.550, 0.603 197.378, 0.750 166.673 C 0.897 135.968, 0.897 86.018, 0.750 55.673 C 0.603 25.328, 0.483 50.450, 0.483 111.500 M 37 111 L 37 150 54.500 150 L 72 150 72 144.500 L 72 139 60.500 139 L 49 139 49 105.500 L 49 72 43 72 L 37 72 37 111 M 78.343 75.566 C 76.265 77.644, 75.897 78.736, 76.411 81.303 C 77.210 85.302, 78.698 86.790, 82.697 87.589 C 89.178 88.886, 93.751 79.751, 89 75 C 86.175 72.175, 81.484 72.425, 78.343 75.566 M 160 102.232 C 146.611 109.318, 142.691 130.728, 152.441 143.511 C 156.726 149.130, 162.193 151.469, 171 151.452 C 176.786 151.440, 179.592 150.906, 183.277 149.116 C 187.638 146.998, 193.012 141.626, 192.992 139.406 C 192.987 138.908, 191.125 137.491, 188.854 136.258 L 184.725 134.016 180.860 137.508 C 177.473 140.567, 176.341 141, 171.720 141 C 168.558 141, 165.552 140.375, 164.217 139.439 C 161.587 137.598, 159 132.941, 159 130.050 C 159 128.061, 159.524 128, 176.639 128 L 194.278 128 193.725 121.905 C 193.003 113.946, 189.547 107.331, 184.115 103.513 C 180.425 100.920, 178.786 100.462, 172.169 100.179 C 165.627 99.899, 163.839 100.201, 160 102.232 M 78 125.500 L 78 150 83.500 150 L 89 150 89 125.500 L 89 101 83.500 101 L 78 101 78 125.500 M 95.343 102.452 C 96.968 106.687, 119.580 152.994, 120.024 152.997 C 120.558 153, 145 102.708, 145 101.606 C 145 101.273, 142.178 101, 138.729 101 L 132.458 101 126.555 114.500 C 123.309 121.925, 120.392 128, 120.074 128 C 119.755 128, 116.805 121.925, 113.518 114.500 L 107.542 101 101.164 101 C 95.999 101, 94.892 101.276, 95.343 102.452 M 166.378 110.437 C 163.172 111.832, 160 115.456, 160 117.723 C 160 118.682, 162.740 119, 171 119 C 182.806 119, 183.527 118.625, 180.369 114.117 C 178.776 111.842, 173.337 108.961, 170.782 109.039 C 170.077 109.061, 168.095 109.690, 166.378 110.437" stroke="none" fill="#5b5b5b" fill-rule="evenodd"/></svg>