<?xml version="1.0" encoding="UTF-8"?>
<svg width="238px" height="229px" viewBox="0 0 238 229" version="1.1" xmlns="http://www.w3.org/2000/svg" xmlns:xlink="http://www.w3.org/1999/xlink">
    <title>Vertical_Primary_Bl_01</title>
    <defs>
        <path d="M65.0057987,0 L65.4800261,0.00655540178 C68.166797,0.0808489825 70.8403743,0.786613195 73.2764677,2.12300469 L73.7038557,2.36538462 L98.4944778,16.8956044 L98.403,16.916 L121.301943,30.3379121 L121.622394,30.5303603 C126.709619,33.6603524 129.869188,39.2162504 129.996031,45.2542739 L130,45.6322606 L130,101.436028 L129.996031,101.814016 C129.869188,107.852084 126.709619,113.409068 121.622394,116.539105 L121.301943,116.731554 L73.698057,144.633438 L73.2769794,144.872639 C70.8771093,146.191965 68.2474271,146.896886 65.6005933,146.989931 L65.1333702,147 L64.8666298,147 L64.3994067,146.989931 C61.7525729,146.896886 59.1228907,146.191965 56.7230206,144.872639 L56.301943,144.633438 L8.69805699,116.731554 L8.37753868,116.539105 C3.28928902,113.409068 0.130767507,107.852084 0.00396748301,101.814016 L0,101.436028 L0,45.6322606 L0.00396748301,45.2542739 C0.0118924845,44.8768975 0.0316601481,44.5014043 0.0630014324,44.128269 L0.0688411084,44.0590419 C0.539021994,38.4655168 3.61212272,33.4003092 8.37640812,30.4652443 L8.70385569,30.2684458 L56.3077417,2.36538462 C58.9983407,0.788854003 62.0020697,0 65.0057987,0 Z M18.9190858,80.7992543 L18.9190858,95.3212323 C18.9190858,96.6163658 19.8167252,98.2164443 20.9138402,98.8781397 L41.6349314,111.367936 C42.7320463,112.029631 43.6262066,111.5104 43.6227375,110.216444 L43.5867754,95.5190345 C43.5832962,94.2239011 42.6810177,92.6273548 41.5804236,91.9715463 L20.9184791,79.6383438 C19.8190447,78.9813579 18.9190858,79.5041209 18.9190858,80.7992543 Z M111.221359,80.7992543 C111.221359,79.5041209 110.3214,78.9813579 109.221965,79.6383438 L109.221965,79.6383438 L88.5600211,91.9715463 C87.4594269,92.6273548 86.5571485,94.2239011 86.5536692,95.5190345 L86.5536692,95.5190345 L86.5177072,110.216444 C86.5142381,111.5104 87.4083983,112.029631 88.5055132,111.367936 L88.5055132,111.367936 L109.226604,98.8781397 C110.323719,98.2164443 111.221359,96.6163658 111.221359,95.3212323 L111.221359,95.3212323 Z M111.451988,49.0376374 C111.466876,47.7425039 110.578514,47.2209184 109.47908,47.8779042 L109.47908,47.8779042 L67.1972452,73.1553768 C66.0989705,73.81354 64.2990526,73.81354 63.2007779,73.1553768 L63.2007779,73.1553768 L20.918943,47.8779042 C19.8183489,47.2209184 18.9195497,47.7425039 18.9195497,49.0376374 L18.9195497,49.0376374 L18.9195497,67.8759419 C18.9195497,69.1722527 19.8183489,70.7687991 20.918943,71.4257849 L20.918943,71.4257849 L63.2007779,96.7032575 C64.2990526,97.3614207 66.096651,97.3590659 67.1949257,96.6985479 L67.1949257,96.6985479 L109.225097,71.4316719 C110.322212,70.7711538 111.232608,69.1722527 111.246525,67.8759419 L111.246525,67.8759419 Z" id="path-1"/>
        <linearGradient x1="49.9999599%" y1="100%" x2="49.9999599%" y2="9.27127907e-05%" id="linearGradient-3">
            <stop stop-color="#F0B118" offset="0%"/>
            <stop stop-color="#E62B19" offset="100%"/>
        </linearGradient>
        <linearGradient x1="49.9998195%" y1="-0.000241349396%" x2="49.9998195%" y2="99.4578192%" id="linearGradient-4">
            <stop stop-color="#F0B118" offset="0%"/>
            <stop stop-color="#EF6A14" offset="100%"/>
        </linearGradient>
    </defs>
    <g id="Vertical_Primary_Bl_01" stroke="none" stroke-width="1" fill="none" fill-rule="evenodd">
        <g id="Group-2" transform="translate(26.000000, 28.000000)">
            <g id="Group-3" transform="translate(28.000000, 0.000000)">
                <mask id="mask-2" fill="white">
                    <use xlink:href="#path-1"/>
                </mask>
                <g id="Combined-Shape"/>
                <path d="M56.301943,2.43602826 L8.69805699,30.3379121 C3.31453958,33.4921507 0,39.322606 0,45.6322606 L0,45.6322606 L0,101.436028 C0,107.745683 3.31453958,113.577316 8.69805699,116.731554 L8.69805699,116.731554 L56.301943,144.633438 C58.9531108,146.188776 61.9069709,146.976452 64.8666298,147 L64.8666298,147 L65.1333702,147 C68.0930291,146.976452 71.0468892,146.188776 73.698057,144.633438 L73.698057,144.633438 L121.301943,116.731554 C126.684301,113.577316 130,107.745683 130,101.436028 L130,101.436028 L130,45.6322606 C130,39.322606 126.684301,33.4921507 121.301943,30.3379121 L121.301943,30.3379121 L73.698057,2.43602826 C71.007458,0.857142857 68.003729,0.068288854 65,0.068288854 L65,0.068288854 C61.996271,0.068288854 58.992542,0.857142857 56.301943,2.43602826" id="Fill-1" fill="url(#linearGradient-3)" mask="url(#mask-2)"/>
                <path d="M56.3077417,2.36538462 L8.70385569,30.2684458 C3.32265777,33.4226845 0.00579870466,39.2543171 0.00579870466,45.5627943 L0.00579870466,45.5627943 L0.00579870466,101.367739 C0.00579870466,107.677394 3.32265777,113.507849 8.70385569,116.663265 L8.70385569,116.663265 L37.5582101,133.575353 L55.1120488,143.863422 C37.2473995,121.722527 32.3625707,91.6177394 42.4441986,65.2429356 L42.4441986,65.2429356 C57.1415954,26.7963108 95.503506,17.560832 98.4944778,16.8956044 L98.4944778,16.8956044 L73.7038557,2.36538462 C71.0132567,0.788854003 68.0095277,0 65.0057987,0 L65.0057987,0 C62.0020697,0 58.9983407,0.788854003 56.3077417,2.36538462" id="Fill-4" fill="url(#linearGradient-4)" mask="url(#mask-2)"/>
            </g>
            <g id="Group-101" transform="translate(0.000000, 159.000000)" fill="#18181C">
                <polygon id="Fill-71" points="9.66905374 13.6216177 9.66905374 4.87898926 6.19353118 10.5978065 6.12296219 10.5978065 2.68272411 4.93638069 2.68272411 13.6216177 0 13.6216177 0 0.229087473 2.92971557 0.229087473 6.17588893 5.89170893 9.42095965 0.229087473 12.3506752 0.229087473 12.3506752 13.6216177"/>
                <path d="M19.0016919,3.67341045 L17.360963,8.01483328 L20.6424208,8.01483328 L19.0016919,3.67341045 Z M22.7418482,13.621259 L21.6127444,10.6189696 L16.3906394,10.6189696 L15.2615356,13.621259 L12.4917029,13.621259 L17.7843769,0.133076387 L20.2895759,0.133076387 L25.5822499,13.621259 L22.7418482,13.621259 Z" id="Fill-73"/>
                <path d="M33.2736078,4.80139126 C33.2736078,4.16410721 33.0850563,3.68464961 32.7079532,3.36780107 C32.3319529,3.04736556 31.8093013,2.88834347 31.1377933,2.88834347 L28.4385296,2.88834347 L28.4385296,6.73476518 L31.19072,6.73476518 C31.862228,6.73476518 32.3771611,6.56259088 32.7355192,6.21704662 C33.0938774,5.87269802 33.2736078,5.41356655 33.2736078,4.84084787 L33.2736078,4.80139126 Z M33.2195784,13.6217372 L30.574344,9.33651018 L28.4385296,9.33651018 L28.4385296,13.6217372 L25.7216236,13.6217372 L25.7216236,0.229207038 L31.3671425,0.229207038 C32.8369622,0.229207038 33.9826056,0.618990526 34.7996621,1.39616619 C35.6167186,2.17453751 36.0257982,3.26019213 36.0257982,4.64954309 L36.0257982,4.68660839 C36.0257982,5.77106736 35.7810121,6.65585196 35.293645,7.33737523 C34.8051753,8.01889851 34.1678491,8.51868225 33.3794612,8.83911775 L36.3962854,13.6217372 L33.2195784,13.6217372 Z" id="Fill-75"/>
                <polygon id="Fill-77" points="43.0476329 13.7173896 40.6482874 13.7173896 35.6555316 0.229207038 38.6547135 0.229207038 41.8832446 9.66053264 45.1117757 0.229207038 48.0403887 0.229207038"/>
                <polygon id="Fill-79" points="48.1807548 13.6216177 48.1807548 0.229087473 57.4793213 0.229087473 57.4793213 2.8511586 50.8634789 2.8511586 50.8634789 5.56768646 56.6843176 5.56768646 56.6843176 8.18736628 50.8634789 8.18736628 50.8634789 10.9995465 57.5675326 10.9995465 57.5675326 13.6216177"/>
                <polygon id="Fill-81" points="58.2369456 13.6216177 58.2369456 0.229087473 60.9538515 0.229087473 60.9538515 10.9612856 67.1109956 10.9612856 67.1109956 13.6216177"/>
                <path d="M77.1314608,6.92642866 C77.1314608,6.35251432 77.0399417,5.80968701 76.858006,5.29914238 C76.6760703,4.78979341 76.4180525,4.34381414 76.0817472,3.96120458 C75.7465445,3.57739937 75.3495939,3.27370303 74.8908955,3.05250688 C74.4321971,2.82772377 73.932701,2.71652786 73.3913046,2.71652786 C72.8377791,2.71652786 72.334975,2.82533246 71.8828925,3.04294164 C71.4297073,3.26055083 71.0426805,3.55946454 70.7196068,3.9420741 C70.3954306,4.32229235 70.1418233,4.76588031 69.9598876,5.27044666 C69.7779519,5.77501302 69.6864328,6.31186205 69.6864328,6.88697205 L69.6864328,6.92642866 C69.6864328,7.49914734 69.7779519,8.0431703 69.9598876,8.55132362 C70.1418233,9.0606726 70.4009438,9.50665186 70.7361464,9.89045708 C71.0713491,10.2730666 71.4649918,10.576763 71.918177,10.7979591 C72.3713622,11.0227422 72.8741662,11.1351338 73.4276917,11.1351338 C73.9679855,11.1351338 74.4674816,11.0251335 74.92618,10.8099157 C75.3848784,10.5923065 75.7763158,10.2910015 76.0993894,9.91078321 C76.422463,9.52817365 76.6760703,9.08458569 76.858006,8.58001934 C77.0399417,8.07545299 77.1314608,7.53860395 77.1314608,6.96349396 L77.1314608,6.92642866 Z M79.4778796,9.6142608 C79.1481901,10.4476322 78.6927996,11.1817643 78.1117081,11.8142658 C77.5284114,12.4443759 76.8337479,12.9417683 76.0288204,13.306443 C75.2238929,13.6687265 74.3450885,13.850466 73.3913046,13.850466 C72.4386232,13.850466 71.5620241,13.6687265 70.7637125,13.306443 C69.9631955,12.9417683 69.27184,12.4515498 68.6896459,11.8333962 C68.1074517,11.214047 67.6542665,10.4882845 67.3311929,9.6513261 C67.0070166,8.81556335 66.8460311,7.92121351 66.8460311,6.96349396 L66.8460311,6.92642866 C66.8460311,5.96870911 67.0103245,5.07196795 67.340014,4.23859651 C67.6697035,3.40283376 68.125094,2.66870167 68.7072881,2.03620024 C69.2905849,1.40609013 69.9841457,0.9086977 70.7890732,0.546414275 C71.5951033,0.18173954 72.4739077,0 73.4276917,0 C74.3792704,0 75.2558695,0.18173954 76.0552838,0.546414275 C76.8546981,0.9086977 77.5460536,1.3989162 78.1282478,2.01826542 C78.7115445,2.63641899 79.1636271,3.3645728 79.4867007,4.1991399 C79.810877,5.03490265 79.9718625,5.93164381 79.9718625,6.88697205 L79.9718625,6.92642866 C79.9718625,7.8817569 79.8075691,8.77849805 79.4778796,9.6142608 L79.4778796,9.6142608 Z" id="Fill-83"/>
                <path d="M90.8122512,10.4457192 C90.5597465,11.1977861 90.1969778,11.8255049 89.727253,12.3300713 C89.2564255,12.8346376 88.6863605,13.2112689 88.0159551,13.4587695 C87.3455497,13.7086613 86.5990622,13.8318138 85.7753898,13.8318138 C84.1170186,13.8318138 82.8114924,13.3344214 81.858811,12.3396365 C80.9061297,11.3448517 80.4297891,9.85984831 80.4297891,7.8810395 L80.4297891,0.228848342 L83.146695,0.228848342 L83.146695,7.80451759 C83.146695,8.90212876 83.3826601,9.72832628 83.8523849,10.2819145 C84.3221097,10.837894 84.9748728,11.1164816 85.8106743,11.1164816 C86.6464757,11.1164816 87.2981362,10.8474592 87.7689636,10.3130015 C88.2397911,9.77495682 88.4746535,8.9726724 88.4746535,7.90016998 L88.4746535,0.228848342 L91.1915595,0.228848342 L91.1915595,7.78538711 C91.1915595,8.80647637 91.0647558,9.69365228 90.8122512,10.4457192" id="Fill-85"/>
                <path d="M100.790926,11.4311779 C100.569296,11.9477008 100.259454,12.3817236 99.8625031,12.7320504 C99.4644499,13.0823773 98.9903145,13.350204 98.440097,13.5355305 C97.8887768,13.7196614 97.277914,13.8129224 96.6075086,13.8129224 C95.6669564,13.8129224 94.7440463,13.6383568 93.8376759,13.2856386 C92.9324081,12.9353118 92.1087358,12.3960714 91.3677614,11.6691133 L92.9732058,9.58389117 C93.5377577,10.0812836 94.1166439,10.478241 94.7109671,10.7699808 C95.3041877,11.0641119 95.9547455,11.2111774 96.6604354,11.2111774 C97.2260899,11.2111774 97.6627355,11.0999815 97.9747827,10.8751984 C98.28683,10.6540023 98.4423023,10.343132 98.4423023,9.9485659 L98.4423023,9.9115006 C98.4423023,9.71900017 98.4103257,9.54921718 98.3452699,9.40215163 C98.2802141,9.25747739 98.1556158,9.11878142 97.9736801,8.99084635 C97.7906418,8.86530259 97.5370345,8.73617187 97.2128582,8.60823679 C96.8886819,8.48149738 96.4674733,8.34877969 95.9481297,8.20649676 C95.3229325,8.04269204 94.757278,7.85616988 94.2500634,7.65290855 C93.7428488,7.44964723 93.3128191,7.19736405 92.9588715,6.89605902 C92.6049239,6.59714531 92.3303665,6.22410099 92.1363018,5.77692607 C91.9422371,5.3309468 91.8452047,4.77616294 91.8452047,4.11257449 L91.8452047,4.07550919 C91.8452047,3.46333389 91.9488529,2.912137 92.1594572,2.41952719 C92.3700615,1.9293087 92.6655692,1.50604687 93.0448775,1.14854607 C93.4241858,0.792240916 93.877371,0.516044641 94.4055357,0.324739862 C94.9337005,0.133435083 95.5136893,0.0377826939 96.1488102,0.0377826939 C97.054078,0.0377826939 97.8865715,0.184848243 98.6462907,0.478979341 C99.4038047,0.773110438 100.100673,1.1927853 100.735794,1.74159088 L99.3244146,3.96072632 C98.7719917,3.55181235 98.2316979,3.23018119 97.7013279,2.99344153 C97.1731632,2.75789752 96.6427931,2.64072334 96.1146284,2.64072334 C95.5842583,2.64072334 95.1873078,2.75072359 94.9237767,2.97550671 C94.6580404,3.19909417 94.5257235,3.47529044 94.5257235,3.80648684 L94.5257235,3.84594345 C94.5257235,4.06355264 94.5654186,4.2500748 94.6415008,4.40909689 C94.717583,4.5705103 94.855413,4.71279323 95.0571962,4.8407283 C95.2567741,4.96746772 95.5313316,5.08822886 95.879766,5.20301173 C96.2270977,5.3177946 96.6670512,5.4529036 97.1974212,5.60475176 C97.8226184,5.78409999 98.3783491,5.98497001 98.8690241,6.20736182 C99.3574938,6.43094928 99.770984,6.69997162 100.107289,7.01084189 C100.443595,7.32290781 100.697202,7.68997386 100.867009,8.11084437 C101.03902,8.53291054 101.125026,9.03508558 101.125026,9.62334778 L101.125026,9.66160873 C101.125026,10.3240015 101.012557,10.914655 100.790926,11.4311779" id="Fill-87"/>
                <path d="M113.791057,6.92642866 C113.791057,6.33816646 113.699538,5.7965348 113.517602,5.29914238 C113.335666,4.80174995 113.082059,4.37370551 112.758985,4.0162047 C112.435912,3.66229086 112.044474,3.38370328 111.585776,3.18522457 C111.127078,2.98674586 110.620966,2.88870216 110.068543,2.88870216 L107.969115,2.88870216 L107.969115,10.9617638 L110.068543,10.9617638 C110.620966,10.9617638 111.127078,10.8661114 111.585776,10.6748067 C112.044474,10.4835019 112.435912,10.2096969 112.758985,9.85219612 C113.082059,9.49469531 113.335666,9.07502046 113.517602,8.58958458 C113.699538,8.10534436 113.791057,7.5637127 113.791057,6.96349396 L113.791057,6.92642866 Z M116.15622,9.56523895 C115.837557,10.3830669 115.38768,11.0896989 114.805486,11.6875263 C114.224394,12.2877451 113.529731,12.7600288 112.723701,13.105573 C111.918773,13.448726 111.033353,13.6220959 110.068543,13.6220959 L105.252209,13.6220959 L105.252209,0.22837008 L110.068543,0.22837008 C111.033353,0.22837008 111.918773,0.399348726 112.723701,0.735327744 C113.529731,1.07369807 114.224394,1.54359044 114.805486,2.14380918 C115.38768,2.74163661 115.837557,3.44707299 116.15622,4.25772699 C116.472678,5.06718533 116.631458,5.94360035 116.631458,6.88697205 L116.631458,6.92642866 C116.631458,7.86980035 116.472678,8.74980233 116.15622,9.56523895 L116.15622,9.56523895 Z" id="Fill-89"/>
                <polygon id="Fill-91" points="117.284222 13.6216177 117.284222 0.229087473 126.582788 0.229087473 126.582788 2.8511586 119.966946 2.8511586 119.966946 5.56768646 125.787784 5.56768646 125.787784 8.18736628 119.966946 8.18736628 119.966946 10.9995465 126.670999 10.9995465 126.670999 13.6216177"/>
                <path d="M135.933289,11.4311779 C135.711658,11.9477008 135.401816,12.3817236 135.004866,12.7320504 C134.606813,13.0823773 134.132677,13.350204 133.58246,13.5355305 C133.03114,13.7196614 132.420277,13.8129224 131.749871,13.8129224 C130.809319,13.8129224 129.886409,13.6383568 128.980039,13.2856386 C128.074771,12.9353118 127.251098,12.3960714 126.510124,11.6691133 L128.115569,9.58389117 C128.68012,10.0812836 129.259007,10.478241 129.85333,10.7699808 C130.44655,11.0641119 131.097108,11.2111774 131.802798,11.2111774 C132.368453,11.2111774 132.805098,11.0999815 133.117145,10.8751984 C133.429193,10.6540023 133.584665,10.343132 133.584665,9.9485659 L133.584665,9.9115006 C133.584665,9.71900017 133.552688,9.54921718 133.487633,9.40215163 C133.422577,9.25747739 133.297978,9.11878142 133.116043,8.99084635 C132.933005,8.86530259 132.679397,8.73617187 132.355221,8.60823679 C132.031045,8.48149738 131.609836,8.34877969 131.090492,8.20649676 C130.465295,8.04269204 129.899641,7.85616988 129.392426,7.65290855 C128.885212,7.44964723 128.455182,7.19736405 128.101234,6.89605902 C127.747287,6.59714531 127.472729,6.22410099 127.278665,5.77692607 C127.0846,5.3309468 126.987567,4.77616294 126.987567,4.11257449 L126.987567,4.07550919 C126.987567,3.46333389 127.091216,2.912137 127.30182,2.41952719 C127.512424,1.9293087 127.807932,1.50604687 128.18724,1.14854607 C128.566548,0.792240916 129.019734,0.516044641 129.547898,0.324739862 C130.076063,0.133435083 130.656052,0.0377826939 131.291173,0.0377826939 C132.196441,0.0377826939 133.028934,0.184848243 133.788653,0.478979341 C134.546167,0.773110438 135.243036,1.1927853 135.878157,1.74159088 L134.466777,3.96072632 C133.914354,3.55181235 133.374061,3.23018119 132.843691,2.99344153 C132.315526,2.75789752 131.785156,2.64072334 131.256991,2.64072334 C130.726621,2.64072334 130.329671,2.75072359 130.066139,2.97550671 C129.800403,3.19909417 129.668086,3.47529044 129.668086,3.80648684 L129.668086,3.84594345 C129.668086,4.06355264 129.707781,4.2500748 129.783864,4.40909689 C129.859946,4.5705103 129.997776,4.71279323 130.199559,4.8407283 C130.399137,4.96746772 130.673694,5.08822886 131.022129,5.20301173 C131.36946,5.3177946 131.809414,5.4529036 132.339784,5.60475176 C132.964981,5.78409999 133.520712,5.98497001 134.011387,6.20736182 C134.499857,6.43094928 134.913347,6.69997162 135.249652,7.01084189 C135.585957,7.32290781 135.839565,7.68997386 136.009371,8.11084437 C136.181383,8.53291054 136.267389,9.03508558 136.267389,9.62334778 L136.267389,9.66160873 C136.267389,10.3240015 136.15492,10.914655 135.933289,11.4311779" id="Fill-93"/>
                <polygon id="Fill-95" points="136.990831 13.6211394 139.707737 13.6211394 139.707737 0.228609211 136.990831 0.228609211"/>
                <path d="M149.983354,13.2293233 C149.106755,13.6430199 148.104454,13.8510638 146.975351,13.8510638 C146.01054,13.8510638 145.132839,13.6776939 144.337835,13.3345409 C143.543934,12.9889967 142.861399,12.5119304 142.291334,11.8985594 C141.721269,11.2863841 141.276905,10.5606216 140.959345,9.7188806 C140.641784,8.87594392 140.483004,7.95887664 140.483004,6.96409178 L140.483004,6.92702648 C140.483004,5.96930693 140.643989,5.07256578 140.968166,4.23799868 C141.291239,3.40223593 141.741117,2.6692995 142.317798,2.03679807 C142.893376,1.4054923 143.57591,0.908099873 144.364298,0.547012103 C145.151583,0.182337368 146.016053,0.000597827435 146.957708,0.000597827435 C147.511234,0.000597827435 148.014038,0.0424457478 148.46612,0.123750279 C148.918203,0.20744612 149.339412,0.324620297 149.728644,0.478859775 C150.115671,0.630707943 150.479542,0.822012722 150.82136,1.05277411 C151.162076,1.28233985 151.491766,1.54418826 151.809326,1.83592805 L150.098028,4.07538962 C149.863166,3.85778043 149.628303,3.66647566 149.392338,3.50027963 C149.157476,3.33527926 148.91269,3.19419198 148.660185,3.08060477 C148.406578,2.9658219 148.133123,2.87734344 147.839821,2.81158242 C147.545416,2.74821272 147.222342,2.71593003 146.869497,2.71593003 C146.376617,2.71593003 145.914611,2.82832159 145.484581,3.05190905 C145.054551,3.27669217 144.678551,3.57560589 144.355477,3.95343282 C144.032403,4.33245542 143.778796,4.77126075 143.59686,5.27821842 C143.414925,5.78158912 143.323406,6.32202512 143.323406,6.89593946 L143.323406,6.93539607 C143.323406,7.54757136 143.414925,8.11550742 143.59686,8.63083467 C143.778796,9.14974888 144.037917,9.60051077 144.373119,9.98312033 C144.708322,10.3657299 145.101965,10.6646436 145.55515,10.8750789 C146.008335,11.0855141 146.511139,11.1907317 147.064665,11.1907317 C148.075786,11.1907317 148.928127,10.9217094 149.621688,10.3824691 L149.621688,8.45626906 L146.887139,8.45626906 L146.887139,5.91071984 L152.250382,5.91071984 L152.250382,11.7275808 C151.615261,12.3134517 150.859953,12.8132354 149.983354,13.2293233" id="Fill-97"/>
                <polygon id="Fill-98" points="161.760215 13.6216177 155.779493 5.10735934 155.779493 13.6216177 153.097872 13.6216177 153.097872 0.229087473 155.603071 0.229087473 161.389728 8.47432345 161.389728 0.229087473 164.071349 0.229087473 164.071349 13.6216177"/>
                <polygon id="Fill-99" points="165.270581 13.6216177 165.270581 0.229087473 174.569147 0.229087473 174.569147 2.8511586 167.953305 2.8511586 167.953305 5.56768646 173.774144 5.56768646 173.774144 8.18736628 167.953305 8.18736628 167.953305 10.9995465 174.657359 10.9995465 174.657359 13.6216177"/>
                <path d="M182.877322,4.80139126 C182.877322,4.16410721 182.688771,3.68464961 182.311668,3.36780107 C181.935667,3.04736556 181.413016,2.88834347 180.741508,2.88834347 L178.042244,2.88834347 L178.042244,6.73476518 L180.794435,6.73476518 C181.465943,6.73476518 181.980876,6.56259088 182.339234,6.21704662 C182.697592,5.87269802 182.877322,5.41356655 182.877322,4.84084787 L182.877322,4.80139126 Z M182.823293,13.6217372 L180.178059,9.33651018 L178.042244,9.33651018 L178.042244,13.6217372 L175.325338,13.6217372 L175.325338,0.229207038 L180.970857,0.229207038 C182.440677,0.229207038 183.58632,0.618990526 184.403377,1.39616619 C185.220433,2.17453751 185.629513,3.26019213 185.629513,4.64954309 L185.629513,4.68660839 C185.629513,5.77106736 185.384727,6.65585196 184.89736,7.33737523 C184.40889,8.01889851 183.771564,8.51868225 182.983176,8.83911775 L186,13.6217372 L182.823293,13.6217372 Z" id="Fill-100"/>
            </g>
        </g>
    </g>
</svg>