<svg id="svg" version="1.1" xmlns="http://www.w3.org/2000/svg" xmlns:xlink="http://www.w3.org/1999/xlink" width="400" height="400" viewBox="0, 0, 400,400"><g id="svgg"><path id="path0" d="M0.000 200.000 L 0.000 385.200 48.520 385.200 C 85.724 385.200,97.152 385.088,97.520 384.720 C 98.220 384.020,98.220 15.980,97.520 15.280 C 97.152 14.912,85.724 14.800,48.520 14.800 L 0.000 14.800 0.000 200.000 M140.080 15.280 C 139.380 15.980,139.380 384.020,140.080 384.720 C 140.451 385.091,169.920 385.200,270.280 385.200 L 400.000 385.200 400.000 200.000 L 400.000 14.800 270.280 14.800 C 169.920 14.800,140.451 14.909,140.080 15.280 " stroke="none" fill="#145c74" fill-rule="evenodd"></path><path id="path1" d="M0.000 6.000 L 0.000 12.000 48.220 12.000 C 101.057 12.000,97.784 11.850,99.568 14.356 L 100.400 15.523 100.400 200.000 L 100.400 384.477 99.568 385.644 C 97.784 388.150,101.057 388.000,48.220 388.000 L 0.000 388.000 0.000 394.000 L 0.000 400.000 57.800 400.000 L 115.600 400.000 115.600 200.000 L 115.600 0.000 57.800 0.000 L 0.000 0.000 0.000 6.000 M122.000 200.000 L 122.000 400.000 261.000 400.000 L 400.000 400.000 400.000 394.000 L 400.000 388.000 270.217 388.000 L 140.434 388.000 138.817 386.462 L 137.200 384.924 137.200 200.000 L 137.200 15.076 138.817 13.538 L 140.434 12.000 270.217 12.000 L 400.000 12.000 400.000 6.000 L 400.000 0.000 261.000 0.000 L 122.000 0.000 122.000 200.000 " stroke="none" fill="#040404" fill-rule="evenodd"></path><path id="path2" d="M0.000 13.400 L 0.000 14.800 48.520 14.800 C 85.724 14.800,97.152 14.912,97.520 15.280 C 98.220 15.980,98.220 384.020,97.520 384.720 C 97.152 385.088,85.724 385.200,48.520 385.200 L 0.000 385.200 0.000 386.600 L 0.000 388.000 48.220 388.000 C 101.057 388.000,97.784 388.150,99.568 385.644 L 100.400 384.477 100.400 200.000 L 100.400 15.523 99.568 14.356 C 97.784 11.850,101.057 12.000,48.220 12.000 L 0.000 12.000 0.000 13.400 M138.817 13.538 L 137.200 15.076 137.200 200.000 L 137.200 384.924 138.817 386.462 L 140.434 388.000 270.217 388.000 L 400.000 388.000 400.000 386.600 L 400.000 385.200 270.280 385.200 C 169.920 385.200,140.451 385.091,140.080 384.720 C 139.380 384.020,139.380 15.980,140.080 15.280 C 140.451 14.909,169.920 14.800,270.280 14.800 L 400.000 14.800 400.000 13.400 L 400.000 12.000 270.217 12.000 L 140.434 12.000 138.817 13.538 " stroke="none" fill="#0c6058" fill-rule="evenodd"></path><path id="path3" d="M0.000 13.400 L 0.000 14.800 48.520 14.800 C 85.724 14.800,97.152 14.912,97.520 15.280 C 98.220 15.980,98.220 384.020,97.520 384.720 C 97.152 385.088,85.724 385.200,48.520 385.200 L 0.000 385.200 0.000 386.600 L 0.000 388.000 48.220 388.000 C 101.057 388.000,97.784 388.150,99.568 385.644 L 100.400 384.477 100.400 200.000 L 100.400 15.523 99.568 14.356 C 97.784 11.850,101.057 12.000,48.220 12.000 L 0.000 12.000 0.000 13.400 M138.817 13.538 L 137.200 15.076 137.200 200.000 L 137.200 384.924 138.817 386.462 L 140.434 388.000 270.217 388.000 L 400.000 388.000 400.000 386.600 L 400.000 385.200 270.280 385.200 C 169.920 385.200,140.451 385.091,140.080 384.720 C 139.380 384.020,139.380 15.980,140.080 15.280 C 140.451 14.909,169.920 14.800,270.280 14.800 L 400.000 14.800 400.000 13.400 L 400.000 12.000 270.217 12.000 L 140.434 12.000 138.817 13.538 " stroke="none" fill="#0c6058" fill-rule="evenodd"></path><path id="path4" d="M0.000 13.400 L 0.000 14.800 48.520 14.800 C 85.724 14.800,97.152 14.912,97.520 15.280 C 98.220 15.980,98.220 384.020,97.520 384.720 C 97.152 385.088,85.724 385.200,48.520 385.200 L 0.000 385.200 0.000 386.600 L 0.000 388.000 48.220 388.000 C 101.057 388.000,97.784 388.150,99.568 385.644 L 100.400 384.477 100.400 200.000 L 100.400 15.523 99.568 14.356 C 97.784 11.850,101.057 12.000,48.220 12.000 L 0.000 12.000 0.000 13.400 M138.817 13.538 L 137.200 15.076 137.200 200.000 L 137.200 384.924 138.817 386.462 L 140.434 388.000 270.217 388.000 L 400.000 388.000 400.000 386.600 L 400.000 385.200 270.280 385.200 C 169.920 385.200,140.451 385.091,140.080 384.720 C 139.380 384.020,139.380 15.980,140.080 15.280 C 140.451 14.909,169.920 14.800,270.280 14.800 L 400.000 14.800 400.000 13.400 L 400.000 12.000 270.217 12.000 L 140.434 12.000 138.817 13.538 " stroke="none" fill="#0c6058" fill-rule="evenodd"></path></g></svg>